<svg xmlns="http://www.w3.org/2000/svg" viewBox="0 0 32 32" role="img" aria-labelledby="v209m-title v209m-desc" data-brand-v20-micro-candidate="v20.9-reference-micro-emissive-current" data-brand-reference-decision="not-reference-approved">
  <title id="v209m-title">THE LEGENDARY POET — v20.9 micro emissive-current master</title>
  <desc id="v209m-desc">Independent QA-only micro master with a near-black monolith and compact electric-blue discharges that begin on the hood and shoulders rather than surrounding it as an aura.</desc>
  <defs>
    <linearGradient id="m209-cloak" x1="7" y1="12" x2="22" y2="32" gradientUnits="userSpaceOnUse"><stop stop-color="#06121c"/><stop offset=".42" stop-color="#020a10"/><stop offset="1" stop-color="#000204"/></linearGradient>
    <linearGradient id="m209-hood" x1="14" y1="2" x2="18" y2="13" gradientUnits="userSpaceOnUse"><stop stop-color="#071824"/><stop offset=".5" stop-color="#020b12"/><stop offset="1" stop-color="#000204"/></linearGradient>
  </defs>
  <g data-brand-micro-field-rear="" aria-hidden="true" fill="none" stroke-linecap="round" stroke-linejoin="round">
    <path data-brand-micro-emission-anchor="left-edge" d="M16 2.7C14.6 3.1 13.6 4.1 13 5.4M11.8 7.2C11.4 9.1 10.6 10.7 9.6 11.7M9.6 11.7C7.9 12.5 6.6 13.8 5.7 15.5M5.7 15.5C4.5 17.9 3.7 21 3.1 24.8" stroke="#006eff" stroke-opacity=".14" stroke-width=".9"/>
    <path data-brand-micro-emission-anchor="right-edge" d="M16 2.7C17.4 3.1 18.4 4.1 19 5.4M20.2 7.1C20.6 9 21.4 10.6 22.4 11.6M22.4 11.6C24.1 12.4 25.4 13.7 26.3 15.4M26.3 15.4C27.5 17.8 28.3 20.9 28.9 24.7" stroke="#007aff" stroke-opacity=".14" stroke-width=".86"/>
  </g>
  <g data-brand-micro-figure="">
    <path id="v209m-cloak" data-brand-micro-cloak="" d="M16 11.5C12.4 11.4 9.5 12.3 7 14C4.6 15.8 2.8 19.6 1.4 25L.2 32H31.8L30.4 24.8C29.1 19.3 27.1 15.4 24.5 13.8C22.2 12.2 19.4 11.4 16 11.5Z" fill="url(#m209-cloak)"/>
    <g data-brand-micro-folds="" fill="none" stroke-linecap="round">
      <path d="M14.7 15.8C11.6 18.5 8.3 22.4 5.6 28" stroke="#102f42" stroke-opacity=".34" stroke-width=".45"/>
      <path d="M15.6 16.3C13.2 20 11.3 24.7 10.2 30" stroke="#0d2939" stroke-opacity=".29" stroke-width=".38"/>
      <path d="M17.3 15.8C20.4 18.4 23.8 22.3 26.5 27.8" stroke="#0f2d40" stroke-opacity=".32" stroke-width=".44"/>
      <path d="M16.4 16.3C18.8 20 20.8 24.7 21.9 30" stroke="#0c2737" stroke-opacity=".27" stroke-width=".37"/>
      <path d="M16 17C15.8 21.5 15.8 26.2 16 31" stroke="#0a2230" stroke-opacity=".3" stroke-width=".32"/>
      <path d="M7 29.8C9.1 24.1 12 19.1 15.2 16" stroke="#02090d" stroke-opacity=".72" stroke-width="1.3"/>
    </g>
    <path id="v209m-hood" data-brand-micro-hood="" d="M16 2.4C14.7 2.7 13.8 3.5 13.1 4.8C12.2 6.5 11.9 8.5 11.1 9.8C10.8 10.6 10.3 11.2 9.8 11.7C11.5 12.5 13.6 12.9 16 13C18.4 12.9 20.4 12.4 22.2 11.5C21.5 10.8 21 9.9 20.5 8.7C20 7.2 19.6 5.8 18.8 4.6C18.1 3.5 17.2 2.7 16 2.4Z" fill="url(#m209-hood)"/>
    <path id="v209m-face" data-brand-micro-face="" d="M16 4.3C14.7 4.7 13.8 5.5 13.3 6.7C12.9 7.6 12.8 8.7 12.4 9.7L11.4 10.8C12.4 11.7 13.9 12.3 15.9 12.5C17.8 12.4 19.4 11.8 20.6 10.6C20.1 10.1 19.8 9.7 19.6 9.4C19.3 8.8 19.3 7.7 18.9 6.8C18.4 5.6 17.4 4.7 16 4.3Z" fill="#000"/>
    <g data-brand-micro-cowl="">
      <path d="M8.8 11.4C11.1 12 13.3 12.6 15.5 13.1C17.9 13.6 20.4 12.9 23.3 11.5C22.8 13.2 21.6 14.5 19.9 15.3C17.4 16.5 14.5 16.3 12.2 15.2C10.5 14.4 9.5 13.1 8.8 11.4Z" fill="#010508"/>
      <path d="M8.9 13.5C11.1 13.9 13 14.6 14.8 15.5C16.7 16.5 18.8 16.3 21.4 15.1C20.3 17.4 18.5 18.5 16.3 18.4C13.6 18.3 10.9 16.8 8.9 13.5Z" fill="#02090d"/>
      <path d="M10.1 15.9C12.1 16.6 14 17.5 15.6 18.6C17.2 19.7 18.9 19.5 21.4 17.9C20.8 19.9 19.5 21.2 17.7 21.6C15.7 22 13.8 21.1 12.4 19.8C11.3 18.9 10.5 17.6 10.1 15.9Z" fill="#000204"/>
    </g>
    <g data-brand-micro-rim="" fill="none" stroke-linecap="round">
      <path d="M15.4 2.8C14.4 3.3 13.7 4.3 13.2 5.6" stroke="#a9edff" stroke-opacity=".98" stroke-width=".52"/>
      <path d="M16.7 2.7C17.7 3.2 18.4 4.2 18.9 5.5" stroke="#d0f7ff" stroke-opacity=".98" stroke-width=".5"/>
      <path d="M10.5 11.1C9.3 11.7 8.3 12.7 7.5 14.1" stroke="#009dff" stroke-opacity=".76" stroke-width=".58"/>
      <path d="M21.6 10.9C22.8 11.5 23.9 12.5 24.7 13.9" stroke="#12adff" stroke-opacity=".74" stroke-width=".56"/>
      <path d="M7.5 14.2C6.6 15.3 5.9 16.6 5.5 18" stroke="#008cff" stroke-opacity=".58" stroke-width=".43"/>
      <path d="M24.6 14C25.6 15.1 26.3 16.4 26.8 17.8" stroke="#009dff" stroke-opacity=".56" stroke-width=".41"/>
    </g>
  </g>
  <g data-brand-micro-field-front="" aria-hidden="true" fill="none" stroke-linecap="round"><path d="M10.5 13.2C9.5 14.6 8.7 16.2 8.1 18.1M14.7 16.1C13.2 17.5 12 19.3 11 21.5" stroke="#008cff" stroke-opacity=".56" stroke-width=".28"/><path d="M21.5 13C22.5 14.4 23.3 16 23.9 17.9M17.3 16C18.8 17.4 20 19.2 21 21.3" stroke="#12a8ff" stroke-opacity=".54" stroke-width=".27"/></g>
</svg>