<svg xmlns="http://www.w3.org/2000/svg" viewBox="0 0 96 96" role="img" aria-labelledby="t d" data-brand-vector-source="canonical-reference-v2-reset-v10-6">
<title id="t">THE LEGENDARY POET</title>
<desc id="d">Безликая фигура в высоком капюшоне, с глубокой чёрной пустотой, тяжёлым перекрывающим клобуком, широкой треугольной мантией и холодной рваной аурой без нижнего дыма</desc>
<defs>
  <linearGradient id="cloak" x1="11" y1="43" x2="82" y2="96" gradientUnits="userSpaceOnUse">
    <stop stop-color="#081924"/><stop offset=".22" stop-color="#041019"/><stop offset=".5" stop-color="#01070d"/><stop offset=".76" stop-color="#000307"/><stop offset="1" stop-color="#000102"/>
  </linearGradient>
  <linearGradient id="hood" x1="34" y1="9" x2="62" y2="45" gradientUnits="userSpaceOnUse">
    <stop stop-color="#1c465c"/><stop offset=".24" stop-color="#103244"/><stop offset=".5" stop-color="#071f2e"/><stop offset=".76" stop-color="#02101a"/><stop offset="1" stop-color="#000307"/>
  </linearGradient>
  <linearGradient id="leftMass" x1="7" y1="54" x2="44" y2="96" gradientUnits="userSpaceOnUse">
    <stop stop-color="#0d2b3a"/><stop offset=".38" stop-color="#061b27"/><stop offset=".76" stop-color="#020b12"/><stop offset="1" stop-color="#000205"/>
  </linearGradient>
  <linearGradient id="rightMass" x1="87" y1="54" x2="51" y2="96" gradientUnits="userSpaceOnUse">
    <stop stop-color="#071b27"/><stop offset=".4" stop-color="#03121b"/><stop offset=".78" stop-color="#00050a"/><stop offset="1" stop-color="#000102"/>
  </linearGradient>
  <radialGradient id="aura" cx="50%" cy="30%" r="52%">
    <stop offset=".12" stop-color="#d9fdff" stop-opacity=".12"/><stop offset=".38" stop-color="#63e7ff" stop-opacity=".09"/><stop offset=".7" stop-color="#1abff0" stop-opacity=".045"/><stop offset="1" stop-color="#006ca8" stop-opacity="0"/>
  </radialGradient>
  <filter id="mist" x="-100%" y="-100%" width="300%" height="300%"><feGaussianBlur stdDeviation="4.6"/></filter>
  <filter id="soft" x="-100%" y="-100%" width="300%" height="300%"><feGaussianBlur stdDeviation="1.3"/></filter>
  <filter id="glow" x="-160%" y="-160%" width="420%" height="420%"><feGaussianBlur stdDeviation=".7" result="b"/><feMerge><feMergeNode in="b"/><feMergeNode in="SourceGraphic"/></feMerge></filter>
</defs>

<g data-brand-atmosphere="" aria-hidden="true">
  <g fill="none" stroke-linecap="round" filter="url(#soft)">
    <path d="M27 59C20 54 20 48 25 42C18 36 21 30 27 25C22 20 25 14 32 10C35 8 35 5 33 2" stroke="#55dcff" stroke-opacity=".10" stroke-width=".82"/>
    <path d="M69 59C76 54 76 48 71 42C78 36 75 30 69 25C74 20 71 14 64 10C61 8 61 5 63 2" stroke="#3bd1ff" stroke-opacity=".085" stroke-width=".76"/>
    <path d="M32 48C26 44 27 39 31 35C26 30 29 25 34 22C30 18 33 13 38 10" stroke="#8cecff" stroke-opacity=".09" stroke-width=".62"/>
    <path d="M64 48C70 44 69 39 65 35C70 30 67 25 62 22C66 18 63 13 58 10" stroke="#64e1ff" stroke-opacity=".075" stroke-width=".58"/>
    <path d="M20 55C14 50 16 44 21 40C16 35 18 29 23 26" stroke="#7be8ff" stroke-opacity=".065" stroke-width=".52"/>
    <path d="M76 55C82 50 80 44 75 40C80 35 78 29 73 26" stroke="#50dbff" stroke-opacity=".055" stroke-width=".48"/>
  </g>
  <g fill="none" stroke-linecap="round">
    <path d="M27 59C20 54 20 48 25 42C18 36 21 30 27 25C22 20 25 14 32 10C35 8 35 5 33 2" stroke="#b8f7ff" stroke-opacity=".18" stroke-width=".25"/>
    <path d="M69 59C76 54 76 48 71 42C78 36 75 30 69 25C74 20 71 14 64 10C61 8 61 5 63 2" stroke="#8ceeff" stroke-opacity=".15" stroke-width=".23"/>
    <path d="M32 48C26 44 27 39 31 35C26 30 29 25 34 22C30 18 33 13 38 10" stroke="#e2feff" stroke-opacity=".14" stroke-width=".18"/>
    <path d="M64 48C70 44 69 39 65 35C70 30 67 25 62 22C66 18 63 13 58 10" stroke="#b2f7ff" stroke-opacity=".14" stroke-width=".18"/>
    <path d="M20 55C14 50 16 44 21 40C16 35 18 29 23 26" stroke="#a5f2ff" stroke-opacity=".1" stroke-width=".16"/>
    <path d="M76 55C82 50 80 44 75 40C80 35 78 29 73 26" stroke="#73e6ff" stroke-opacity=".1" stroke-width=".16"/>
    <path d="M35 24L32 21L35 17L33 14L36 10" stroke="#f1ffff" stroke-opacity=".19" stroke-width=".17"/>
    <path d="M61 24L64 21L61 17L63 14L60 10" stroke="#c4f9ff" stroke-opacity=".15" stroke-width=".16"/>
  </g>
</g>
<g data-brand-energy="" aria-hidden="true" fill="none" stroke-linecap="round">
  <path d="M21 48L18 45L21 41L18 38" stroke="#ddfdff" stroke-opacity=".18" stroke-width=".18"/>
  <path d="M75 48L78 45L75 41L78 38" stroke="#a7f3ff" stroke-opacity=".15" stroke-width=".17"/>
  <path d="M36 11L33 8L36 5L34 2" stroke="#f3ffff" stroke-opacity=".2" stroke-width=".17"/>
  <path d="M60 11L63 8L60 5L62 2" stroke="#bdf8ff" stroke-opacity=".16" stroke-width=".16"/>
</g>

<g data-brand-figure="">
  <path data-brand-cloak="" d="M48 35.2C40.3 35.2 33.9 37.6 28.3 41.7C22.6 45.9 18.7 52.3 15.5 60.6L7.2 82.8C5.4 87.7 5.4 91.8 7.8 94.9C19.2 95.7 30.9 95.9 41 95.5C44.4 95.4 46.8 94.5 48 92.9C49.5 94.5 52 95.4 55.4 95.5C65.9 95.9 77.3 95.5 88.4 94.6C90.4 91.3 90.3 87.3 88.5 82.2L80.5 60C77.4 51.8 73.4 45.7 67.8 41.6C62.3 37.6 55.8 35.2 48 35.2Z" fill="url(#cloak)" stroke="#25586b" stroke-opacity=".46" stroke-width=".52"/>

  <g data-brand-folds="">
    <path d="M7.8 95C11.1 78.8 18.8 61.9 31.2 45.8C35 41.8 39.6 42.7 44.7 47.2C33.4 58.8 24.2 75.1 18.1 95.4Z" fill="#05141d"/>
    <path d="M14.2 95.4C20.1 75.8 29.5 59 43.1 48.7C35.6 62.6 31 78.9 29.7 95.6Z" fill="url(#leftMass)" opacity=".92"/>
    <path d="M23.3 95.7C27.5 79.2 34.1 64.1 44.6 51.8C39.3 67.4 36.6 82 36.6 95.7Z" fill="#03111a"/>
    <path d="M32.5 96C35.8 78.6 40.9 64.2 46.5 53.4C43.8 68.9 42.4 83.2 43.5 96Z" fill="#061722" fill-opacity=".62"/>
    <path d="M40.2 96C40.3 80 43 66.1 47.5 54.2C46.2 70.9 45.9 84.7 46.5 96Z" fill="#04131d" fill-opacity=".74"/>
    <path d="M88.2 95C84.8 78.4 77.2 61.5 64.8 45.8C61 41.8 56.4 42.7 51.3 47.2C62.6 58.8 71.8 75.1 77.9 95.4Z" fill="#01050a"/>
    <path d="M81.8 95.4C75.9 75.8 66.5 59 52.9 48.7C60.4 62.6 65 78.9 66.3 95.6Z" fill="url(#rightMass)" opacity=".92"/>
    <path d="M72.7 95.7C68.5 79.2 61.9 64.1 51.4 51.8C56.7 67.4 59.4 82 59.4 95.7Z" fill="#01070d"/>
    <path d="M63.5 96C60.2 78.6 55.1 64.2 49.5 53.4C52.2 68.9 53.6 83.2 52.5 96Z" fill="#000307"/>
    <path d="M55.8 96C55.7 80 53 66.1 48.5 54.2C49.8 70.9 50.1 84.7 49.5 96Z" fill="#000205"/>
    <path d="M9.7 89.5C18.2 69.8 28.4 56.6 42.3 49.7C32.9 61.2 24.2 76.8 17.5 94.8Z" fill="#123947" fill-opacity=".12"/>
    <path d="M86.3 89.5C77.8 69.8 67.6 56.6 53.7 49.7C63.1 61.2 71.8 76.8 78.5 94.8Z" fill="#0b2b39" fill-opacity=".08"/>
  </g>

  <path data-brand-hood="" d="M48 8.7C42.4 10.6 39.2 16.7 37.6 23.7C36.3 29.2 34.3 34.3 31.8 39C36.7 38.9 41.2 40.5 45 43.1C46.6 44.2 47.6 45.3 48 46C48.5 45.3 49.5 44.2 51.1 43.1C54.9 40.5 59.3 38.9 64.2 39C61.7 34.3 59.7 29.2 58.4 23.7C56.8 16.7 53.6 10.6 48 8.7Z" fill="url(#hood)" stroke="#438fa3" stroke-opacity=".59" stroke-width=".58"/>
  <g data-brand-hood-layers="">
    <path d="M48 9.4C44.2 12 41.7 17.2 40.2 23.3C39 28 37.2 32.6 35.2 35.9C39.6 36.4 43.6 39.5 47.7 45.7C45.9 35.4 45.3 26.9 46.1 19.1C46.5 14.8 47.3 11 48 9.4Z" fill="#173d51"/>
    <path d="M48 9.4C51.8 12 54.3 17.2 55.8 23.3C57 28 58.8 32.6 60.8 35.9C56.4 36.4 52.4 39.5 48.3 45.7C50.1 35.4 50.7 26.9 49.9 19.1C49.5 14.8 48.7 11 48 9.4Z" fill="#020a12"/>
    <path d="M48 11.1C44.9 13.3 42.5 17.2 40.8 22.2C43 20.1 45.4 18.5 48 17.5C50.6 18.5 53 20.1 55.2 22.2C53.5 17.2 51.1 13.3 48 11.1Z" fill="#0e2b3b"/>
    <path d="M48 13C45.7 14.5 43.9 16.8 42.6 19.6C44.4 18.5 46.2 17.8 48 17.4C49.8 17.8 51.6 18.5 53.4 19.6C52.1 16.8 50.3 14.5 48 13Z" fill="#071821"/>
    <path d="M40.1 23.6C42.4 18.2 45 14.5 48 12.4C51 14.5 53.6 18.2 55.9 23.6" fill="none" stroke="#a9eaf3" stroke-opacity=".21" stroke-width=".43" stroke-linecap="round"/>
  </g>

  <path data-brand-face-void="" d="M48 16.2L42.8 18.5L39.2 24.3L35.4 28.8L39 34.3L44.3 38.1L51.7 38.1L57 34.3L60.6 28.8L56.8 24.3L53.2 18.5Z" fill="#000"/>
  <g data-brand-face-depth="">
    <path d="M42.8 18.5L39.2 24.3L35.4 28.8L39 34.3L44.3 38.1C41.6 34.6 40.2 31.1 40.4 27.6C40.6 24.1 41.6 21.1 42.8 18.5Z" fill="#010509"/>
    <path d="M53.2 18.5L56.8 24.3L60.6 28.8L57 34.3L51.7 38.1C54.4 34.6 55.8 31.1 55.6 27.6C55.4 24.1 54.4 21.1 53.2 18.5Z" fill="#000204"/>
  </g>

  <path data-brand-neck-shadow="" d="M44.3 38.1L51.7 38.1C57.2 38.8 61.7 40.2 65.2 42.3C59.4 47.2 53.8 49.2 48 49.3C42.2 49.2 36.6 47.2 30.8 42.3C34.3 40.2 38.8 38.8 44.3 38.1Z" fill="#02080e"/>

  <g data-brand-collar="">
    <path d="M24.6 39.8C32.7 37.2 40.2 38.6 49.5 44.4C55.8 48.3 62.4 46.8 70.3 41C67.2 46.7 61.8 50.1 55.1 50.2C45.5 50.4 34.6 46.8 24.6 39.8Z" fill="#102d3c"/>
    <path d="M70.8 42.6C62.9 39.6 56.1 41.1 46.3 47.2C40.1 51.1 33.7 49.9 25.6 44.1C29.3 50 35 52.9 42 52.5C51 52 62 48.1 70.8 42.6Z" fill="#04111a"/>
    <path d="M27.7 44.5C35.2 42.2 41.4 43.8 50.2 49.2C46.6 53.1 41.9 54.5 37.2 53.1C32.9 51.8 29.7 48.9 27.7 44.5Z" fill="#0b2633"/>
    <path d="M67.7 45.1C60.7 43 54.3 44.5 45.5 50.5C49.3 54.2 54.1 55.3 58.7 53.8C62.7 52.5 65.7 49.6 67.7 45.1Z" fill="#01080e"/>
    <path d="M32.4 48.5C37.7 46.9 42.1 48.4 48.2 52.2C45.7 55 42.5 56 39.3 55C36.5 54.1 34.2 51.9 32.4 48.5Z" fill="#071d27"/>
    <path d="M63 48.9C58.1 47.5 53.4 49 47.2 53C50 55.6 53.3 56.4 56.4 55.2C59.2 54.2 61.4 52.1 63 48.9Z" fill="#01060b"/>
    <path d="M25.8 40.8C33.5 38.6 40.2 40 48.1 44.8C55.2 49.1 62 47.6 68.9 42" fill="none" stroke="#a7e7ef" stroke-opacity=".1" stroke-width=".36" stroke-linecap="round"/>
    <path d="M29 44.8C36.2 42.6 42.3 44.1 49.4 48.7C55.4 52.5 61.1 50.8 66.7 46" fill="none" stroke="#69a9b7" stroke-opacity=".06" stroke-width=".3" stroke-linecap="round"/>
  </g>


  <g data-brand-texture="" fill="none" stroke-linecap="round">
    <path d="M8.6 88C16 70.1 27 56.4 43.5 49.3" stroke="#95dce7" stroke-opacity=".14" stroke-width=".42"/>
    <path d="M15.2 95C21.6 76.2 31 61.1 44.5 51.4" stroke="#72c5d2" stroke-opacity=".1" stroke-width=".37"/>
    <path d="M26.3 96C31.1 77.8 37.3 63.1 45.7 53.1" stroke="#54a0b0" stroke-opacity=".085" stroke-width=".32"/>
    <path d="M87.4 88C80 70.1 69 56.4 52.5 49.3" stroke="#397b8c" stroke-opacity=".06" stroke-width=".38"/>
    <path d="M80.8 95C74.4 76.2 65 61.1 51.5 51.4" stroke="#245d6e" stroke-opacity=".045" stroke-width=".33"/>
    <path d="M69.7 96C64.9 77.8 58.7 63.1 50.3 53.1" stroke="#194a59" stroke-opacity=".035" stroke-width=".29"/>
    <path d="M32.2 31C34.7 20.4 39.4 12.3 46.9 9.1" stroke="#f5ffff" stroke-opacity=".34" stroke-width=".5"/>
    <path d="M63.8 31C61.3 20.4 56.6 12.3 49.1 9.1" stroke="#6fcfdf" stroke-opacity=".12" stroke-width=".36"/>
  </g>

  <g data-brand-rim-light="" fill="none" stroke-linejoin="round" stroke-linecap="round" filter="url(#glow)">
    <path d="M31.8 39C34.3 34.3 36.3 29.2 37.6 23.7C39.1 17.3 42.2 11.5 46.5 9.3" stroke="#c7f8ff" stroke-opacity=".62" stroke-width=".46"/>
    <path d="M47.1 9C47.5 8.9 47.8 8.8 48 8.7" stroke="#e9ffff" stroke-opacity=".72" stroke-width=".5"/>
    <path d="M48 8.7C53.6 10.6 56.8 16.7 58.4 23.7C59.7 29.2 61.7 34.3 64.2 39" stroke="#8de8ff" stroke-opacity=".54" stroke-width=".44"/>
    <path d="M31.8 39C29.8 41.2 28.1 42.6 26.8 43.6C21.9 47.3 18.6 52.5 15.7 59.6" stroke="#d8fdff" stroke-opacity=".51" stroke-width=".44"/>
    <path d="M14.8 62L11.8 70.5" stroke="#a3f0ff" stroke-opacity=".28" stroke-width=".36"/>
    <path d="M64.2 39C66.2 41.2 67.9 42.6 69.2 43.6C74.1 47.3 77.4 52.5 80.3 59.6" stroke="#84e7ff" stroke-opacity=".4" stroke-width=".42"/>
    <path d="M81.2 62L84.2 70.5" stroke="#5edaff" stroke-opacity=".23" stroke-width=".34"/>
  </g>

  <g data-brand-seams="" fill="none" stroke-linecap="round">
    <path d="M17 61C25.7 53.8 34.6 49.7 44.2 51.3" stroke="#afe8ef" stroke-opacity=".08" stroke-width=".34"/>
    <path d="M79 61C70.3 53.8 61.4 49.7 51.8 51.3" stroke="#397687" stroke-opacity=".038" stroke-width=".3"/>
    <path d="M10.5 78C21.2 65.7 32.4 57.1 44.8 53.5" stroke="#83cbd8" stroke-opacity=".06" stroke-width=".31"/>
    <path d="M85.5 78C74.8 65.7 63.6 57.1 51.2 53.5" stroke="#285d6d" stroke-opacity=".03" stroke-width=".27"/>
  </g>
</g>
</svg>