<svg xmlns="http://www.w3.org/2000/svg" viewBox="0 0 96 96" aria-hidden="true" data-brand-vector-source="canonical-reference-v2-throat-aura-textile-v16-0"><path fill="#fff" fill-rule="evenodd" d="M47.8 7.8C43.2 8.9 40.1 13.1 38.4 18C36.9 22.3 35.7 27 33.8 31.4C30.9 33.3 28.2 36.7 27.5 42.7C22.3 46.8 19 53.8 15.9 62.2L8.1 92.4C7.5 94.8 9.2 95.8 12.6 95.9C23.1 96.1 34.4 96 42.9 95.8C45.8 95.7 47.3 95 48 93.8C48.8 95 50.3 95.7 53.3 95.8C62.1 96 73.3 96.1 83.8 95.8C87.1 95.6 88.7 94.6 88 92.2L80 62.5C77.1 54.1 73.8 47 68.5 42.8C67.7 36.9 64.9 33.5 61.8 31.3C60.2 26.8 58.9 22.2 57.3 17.8C55.5 12.9 52.4 8.8 47.8 7.8ZM47.7 14.3C44.4 15.4 41.6 19 40.1 23.1C38.9 26.6 39.3 30.2 41.7 33.6L48.1 39.1L54.4 32.3C56.3 29.7 56.5 26.3 55.2 22.8C53.8 19 51.2 15.2 48.1 14.4Z"/></svg>
