<svg xmlns="http://www.w3.org/2000/svg" viewBox="0 0 96 96" role="img" aria-labelledby="t d" data-brand-vector-source="reference-derived-contours-v8-4"><title id="t">THE LEGENDARY POET</title><desc id="d">Безликая фигура в глубоком капюшоне и тяжёлом широком плаще</desc><defs><linearGradient id="cloak" x1="2" y1="42" x2="94" y2="96" gradientUnits="userSpaceOnUse"><stop stop-color="#1a405b"/><stop offset=".2" stop-color="#0b293d"/><stop offset=".52" stop-color="#04131f"/><stop offset=".82" stop-color="#01070d"/><stop offset="1" stop-color="#000103"/></linearGradient><linearGradient id="hood" x1="25" y1="2" x2="71" y2="54" gradientUnits="userSpaceOnUse"><stop stop-color="#2b5871"/><stop offset=".25" stop-color="#15394f"/><stop offset=".58" stop-color="#071d2b"/><stop offset="1" stop-color="#010409"/></linearGradient><linearGradient id="hoodLeft" x1="25" y1="2" x2="49" y2="53" gradientUnits="userSpaceOnUse"><stop stop-color="#2d6078"/><stop offset=".48" stop-color="#153a4f"/><stop offset="1" stop-color="#050d15"/></linearGradient><linearGradient id="wrapA" x1="18" y1="44" x2="76" y2="59" gradientUnits="userSpaceOnUse"><stop stop-color="#20495f"/><stop offset=".4" stop-color="#103147"/><stop offset=".75" stop-color="#061925"/><stop offset="1" stop-color="#010409"/></linearGradient><linearGradient id="wrapB" x1="75" y1="44" x2="28" y2="61" gradientUnits="userSpaceOnUse"><stop stop-color="#123348"/><stop offset=".45" stop-color="#082030"/><stop offset=".82" stop-color="#020b12"/><stop offset="1" stop-color="#000103"/></linearGradient><linearGradient id="rim" x1="21" y1="3" x2="5" y2="92" gradientUnits="userSpaceOnUse"><stop stop-color="#ffffff"/><stop offset=".12" stop-color="#d9fbff"/><stop offset=".35" stop-color="#77e7fb"/><stop offset=".67" stop-color="#35bfdd"/><stop offset="1" stop-color="#167890" stop-opacity="0"/></linearGradient><filter id="aura" x="-70%" y="-70%" width="240%" height="240%"><feGaussianBlur stdDeviation="3.2"/></filter><filter id="glow" x="-120%" y="-120%" width="340%" height="340%"><feGaussianBlur stdDeviation=".72" result="b"/><feMerge><feMergeNode in="b"/><feMergeNode in="SourceGraphic"/></feMerge></filter></defs><g filter="url(#aura)" opacity=".9"><path d="M8 94C5 69 14 48 29 34C36 27 39 13 48 4C58 13 61 27 68 34C83 49 91 69 88 94C75 71 61 58 48 54C35 58 21 72 8 94Z" fill="#58def9" fill-opacity=".18"/><path d="M0 94C4 69 14 50 29 39C17 59 13 78 13 96Z" fill="#43d6ef" fill-opacity=".16"/><path d="M96 94C92 69 82 50 67 39C79 59 83 78 83 96Z" fill="#208ba5" fill-opacity=".09"/></g><path data-brand-cloak="" d="M18 43C10 46 4 54 1.5 67C-.2 77 .4 89 2.5 95.5C16 96 32 95.6 48 95.8C65 95.7 80 96.1 93.5 95C96 86 95 74 92 64C88.5 52 81.5 45.5 74 42.5C66 39.5 58 38 48.4 40.2C39.1 38.2 27.8 39.6 18 43Z" fill="url(#cloak)" stroke="#234a60" stroke-opacity=".55" stroke-width=".72"/><path d="M2.5 95C6.2 73 15.9 54.8 31.2 43.5C23.9 62.1 20.5 79.8 20.8 95.7Z" fill="#173d57"/><path d="M93.5 95C89.8 73 80.1 54.8 64.8 43.5C72.1 62.1 75.5 79.8 75.2 95.7Z" fill="#03121e"/><path d="M16.6 95.7C22.2 70.9 32.5 52.8 42.7 44.8C37.7 62.8 34.6 79.8 34.8 95.8Z" fill="#0b273a"/><path d="M79.4 95.7C73.8 70.9 63.5 52.8 53.3 44.8C58.3 62.8 61.4 79.8 61.2 95.8Z" fill="#01070d"/><path d="M33.7 95.8C38 72.3 43.1 55.8 47.4 46.4C45 65.1 43.7 81.1 43.9 95.9Z" fill="#03101a"/><path d="M62.3 95.8C58 72.3 52.9 55.8 48.6 46.4C51 65.1 52.3 81.1 52.1 95.9Z" fill="#000204"/><path data-brand-hood="" d="M48 2.5C40 5.4 34.5 13.5 30.3 24.5C27.5 32 26.6 37.3 20.5 44.6C27.5 41.5 36 41.4 42.5 45C45.3 46.7 47.2 49.4 48.3 52.8C50 49.2 52.5 46.7 55.5 45C62.5 41.2 69 41.4 76 44.6C70.5 38 69.4 32 66.3 23.6C62.4 13 56.2 5.2 48 2.5Z" fill="url(#hood)" stroke="#316278" stroke-opacity=".84" stroke-width=".88"/><path d="M48 2.9C41.3 8.4 36.6 17 33.3 27.6C31.2 34.5 30.1 39.4 25.5 43.8C31.2 42.5 37.9 43.7 43 46.8C45.7 48.5 47.3 50.6 48.3 52.7C45.3 41.1 42.8 30.4 43 21C43.1 13.6 44.7 7.5 48 2.9Z" fill="url(#hoodLeft)" fill-opacity=".72"/><path d="M48.2 2.9C54.7 8.1 59.6 16.6 62.7 27.1C64.8 34.1 65.8 39.3 70.4 43.7C64.8 42.8 58.9 43.8 53.8 46.9C51.3 48.5 49.6 50.6 48.3 52.8C51.2 41.2 53.2 30.1 53 21C52.9 13.7 51.4 7.6 48.2 2.9Z" fill="#061620" fill-opacity=".84"/><path data-brand-face-void="" d="M48.1 15.3C39.8 15.3 34 20.5 31.7 29C29.8 36.2 31.2 43.4 36.8 48.1C39.8 50.7 43.7 52.3 48 52.5C52.7 52.3 57.2 50.4 60.2 47.1C64.2 42.6 65.3 35.6 62.8 28.7C60.1 20.6 55 15.3 48.1 15.3Z" fill="#000"/><g data-brand-collar=""><path d="M18.5 44.4C28 41.7 38.5 43.2 48.6 48.4C58 52.9 66.5 54.4 75.8 51.4C71.2 57.1 63.5 59.6 55.2 58.9C44 58 36.3 52.4 26.4 50.8C22.6 50.2 19.9 47.7 18.5 44.4Z" fill="url(#wrapA)"/><path d="M74.8 45.1C66.5 42.5 57.7 43.7 49 48.7C42.5 52.4 36.3 55.6 29 56.7C34.4 60.2 41.4 60.5 49.6 56.5C58.8 51.9 66.2 49.7 74.2 50.9C75.1 48.9 75.3 46.8 74.8 45.1Z" fill="url(#wrapB)"/></g><g data-brand-texture="" fill="none" stroke-linecap="round"><path d="M30.8 36.9C33.1 23.8 38.8 10.9 47.7 3.2" stroke="#dcfbff" stroke-opacity=".17" stroke-width=".52"/><path d="M65 36.3C62.6 23.7 56.9 10.8 48.3 3.2" stroke="#3a9fb6" stroke-opacity=".06" stroke-width=".44"/><path d="M9.6 88C15.6 66.5 27.2 51.5 42.5 44.7" stroke="#74d8ea" stroke-opacity=".08" stroke-width=".45"/><path d="M86.4 88C80.4 66.5 68.8 51.5 53.5 44.7" stroke="#1f6576" stroke-opacity=".03" stroke-width=".4"/></g><g data-brand-rim-light="" fill="none" stroke-linecap="round" filter="url(#glow)"><path d="M20.8 44.4C25.7 39.2 27.2 34.3 29.6 26.5C33 15.3 38.9 5.7 47.8 2.8" stroke="url(#rim)" stroke-width="1.15" stroke-linecap="butt"/><path d="M48.2 2.9C55.5 5.7 61.4 14.4 65.1 25.6" stroke="#8ceafa" stroke-opacity=".5" stroke-width=".68"/><path d="M66.1 30.9C67.2 36.5 69.5 40.2 73.7 43.6" stroke="#43b7d0" stroke-opacity=".24" stroke-width=".55"/><path d="M16.4 46.2C9.2 53.3 4.8 66.1 2.1 86.1" stroke="#a6f0ff" stroke-opacity=".42" stroke-width=".78"/><path d="M1.8 89.2C1.6 91.3 1.7 93.2 2.1 94.5" stroke="#55c9df" stroke-opacity=".22" stroke-width=".58"/><path d="M79.6 46C86.8 53.2 91.2 66 93.9 85.8" stroke="#2a91a9" stroke-opacity=".11" stroke-width=".5"/></g><g data-brand-energy="" fill="none" stroke-linecap="round"><path d="M11.8 73C9.9 58.7 13.7 45.6 21.4 36.3" stroke="#58d9f1" stroke-opacity=".22" stroke-width=".5"/><path d="M84.2 73C86.1 58.7 82.3 45.6 74.6 36.3" stroke="#288ca6" stroke-opacity=".09" stroke-width=".4"/></g></svg>