<svg xmlns="http://www.w3.org/2000/svg" viewBox="0 0 32 32" role="img" focusable="false" aria-labelledby="micro-title micro-description">
<title id="micro-title">THE LEGENDARY POET</title><desc id="micro-description">Безликая мистическая фигура в глубоком капюшоне</desc>
<defs><linearGradient id="m-base" x1="2" y1="10" x2="29" y2="32" gradientUnits="userSpaceOnUse"><stop stop-color="#17384f"/><stop offset=".42" stop-color="#081c2b"/><stop offset="1" stop-color="#010409"/></linearGradient><linearGradient id="m-hood" x1="10" y1="1" x2="22" y2="18" gradientUnits="userSpaceOnUse"><stop stop-color="#20465e"/><stop offset=".45" stop-color="#0d273a"/><stop offset="1" stop-color="#02070e"/></linearGradient></defs>
<path d="M17 1.7Q15.7 .7 14.4 1.9Q13.2 3.2 12.3 5.5Q11.4 7.9 11.4 8.8Q11.5 9.8 11.2 10Q10.9 10.2 11.2 10.3Q11.5 10.4 10.1 12.1Q8.7 13.8 7.8 14.2Q6.9 14.6 6.3 15Q5.8 15.4 3.3 20.2Q.8 25 .9 27.6Q.9 30.2 4.1 30.5Q7.3 30.9 8.1 31.3Q8.8 31.7 11 31.5Q13.2 31.3 14.7 31.7Q16.1 32 17.9 31.7Q19.7 31.3 22.9 31.3Q26.1 31.3 26.5 31Q27 30.6 28.9 30.4Q30.8 30.2 31.1 28.2Q31.3 26.2 29.8 23.5Q28.4 20.8 28.1 20.2Q27.8 19.5 26.3 16.5Q24.9 13.5 23.1 12.9Q21.4 12.2 21.2 11.2Q20.9 10.2 20.5 10.1Q20 10.1 20.1 9Q20.2 7.9 19.2 5.3Q18.3 2.8 17 1.7Z" fill="url(#m-base)" stroke="#2ba9c8" stroke-opacity=".32" stroke-width=".5"/>
<path d="M1 30.3C3.4 23.4 7 18.5 12.5 15.2C9.7 19.9 8.2 25.2 7.7 31.1Z" fill="#0d2b40"/><path d="M31 30.1C28.7 23.3 25.1 18.2 19.7 14.8C22.5 19.7 24 25 24.4 31.1Z" fill="#061522"/>
<path d="M15.7 .9C13.5 2.1 12 4.7 11.4 7.9C11.1 9.4 11.5 10.5 10.3 12C9.4 13.1 8.3 14 6.9 14.6C9.9 14.3 12.4 14.9 14.4 16.3C15.2 16.8 15.7 17.5 16.1 18.3C16.5 17.5 17 16.8 17.8 16.3C19.9 14.8 22.3 13.9 25.2 13.5C23.6 12.8 22.3 11.9 21.5 10.8C20.8 10 21.1 9 20.7 7.4C19.9 4.4 18.3 2 15.7 .9Z" fill="url(#m-hood)"/>
<path d="M16.5 7Q14.9 6.7 14.3 7.6Q13.7 8.5 13.5 9.4Q13.3 10.4 12.8 10.6Q12.4 10.9 12.4 11.9Q12.4 12.8 12.2 12.9Q11.9 12.9 11.9 13.1Q11.8 13.4 11.2 13.3Q10.7 13.3 10.6 13.7Q10.5 14 10.1 14.2Q9.7 14.4 10.3 15.3Q10.9 16.1 11.8 16.7Q12.7 17.3 13.9 17.6Q15 17.9 16.2 17.9Q17.5 17.9 19.2 17.3Q20.9 16.6 21.6 15.9Q22.3 15.2 22.3 14.8Q22.3 14.4 21.9 14.3Q21.6 14.3 21.6 13.8Q21.7 13.3 21.1 13.3Q20.6 13.3 20.5 13.1Q20.5 13 20.2 12.9Q19.8 12.9 19.9 12.1Q20 11.3 19.5 10.8Q19 10.2 18.5 8.8Q18.1 7.4 16.5 7Z" fill="#000104"/>
<path d="M5.3 16.2C8.7 14.7 12 14.7 14.7 15.6C15.6 15.9 16.1 16.3 16.6 16.9C17.1 16.3 17.7 15.9 18.6 15.6C21.5 14.7 24.6 15 27.3 16.7C24.8 16.5 22.5 16.9 20.5 17.8C18.7 18.6 17.3 19.5 16.1 20.5C14.8 19.5 13.3 18.7 11.6 17.9C9.6 17.1 7.5 16.5 5.3 16.2Z" fill="#071824"/>
<path d="M5.6 15.7C9 14.6 12 14.8 14.6 15.6C15.4 15.9 16 16.2 16.5 16.7C14 16.6 11.7 17.1 9.6 18.1C7.9 17.8 6.6 17 5.6 15.7Z" fill="#1a3c51"/><path d="M26.5 16C23.4 14.7 20.5 14.7 17.5 15.6C16.7 15.8 16.2 16.2 15.6 16.7C18.1 16.7 20.3 17.2 22.4 18.1C24 17.9 25.4 17.2 26.5 16Z" fill="#071722"/>
<path d="M7.1 14.3C8.7 13.4 9.9 12 10.6 10.3" fill="none" stroke="#a7effb" stroke-opacity=".68" stroke-width=".65" stroke-linecap="round"/><path d="M11.1 8.7C11.9 5.7 13.3 2.3 15.7 1.1" fill="none" stroke="#d8fbff" stroke-width=".78" stroke-linecap="round"/><path d="M15.7 1.1C17.5 2.2 18.8 3.9 19.6 6" fill="none" stroke="#48bfd8" stroke-opacity=".4" stroke-width=".5" stroke-linecap="round"/>
</svg>
