<svg xmlns="http://www.w3.org/2000/svg" viewBox="0 0 96 96" role="img" aria-label="THE LEGENDARY POET">
  <defs>
    <linearGradient id="hoodFill" x1="20" y1="8" x2="76" y2="88">
      <stop offset="0%" stop-color="#d6fbff"/><stop offset="46%" stop-color="#33d6ff"/><stop offset="100%" stop-color="#2170ff"/>
    </linearGradient>
    <radialGradient id="hoodVoid" cx="50%" cy="40%" r="60%">
      <stop offset="0%" stop-color="#03060c"/><stop offset="70%" stop-color="#071019"/><stop offset="100%" stop-color="#0b1826"/>
    </radialGradient>
    <filter id="hoodGlow" x="-40%" y="-40%" width="180%" height="180%">
      <feGaussianBlur stdDeviation="1.2" result="b"/><feMerge><feMergeNode in="b"/><feMergeNode in="SourceGraphic"/></feMerge>
    </filter>
  </defs>
  <rect width="96" height="96" rx="20" fill="#050810"/>
  <g filter="url(#hoodGlow)" transform="translate(0,2)">
    <path d="M12 91 C12 77 18 67 30 62 C36 60 42 60 48 60 C54 60 60 60 66 62 C78 67 84 77 84 91 Z" fill="url(#hoodFill)"/>
    <path d="M48 7 C39 7 33 14 31 24 C29 33 30 45 34 54 C36 58 38 61 40 62 L56 62 C58 61 60 58 62 54 C66 45 67 33 65 24 C63 14 57 7 48 7 Z" fill="url(#hoodFill)"/>
    <path d="M48 17 C41 17 37 24 37 33 C37 44 42 53 48 55 C54 53 59 44 59 33 C59 24 55 17 48 17 Z" fill="url(#hoodVoid)"/>
  </g>
</svg>
